<!DOCTYPE svg PUBLIC "-//W3C//DTD SVG 1.1//EN" "http://www.w3.org/Graphics/SVG/1.1/DTD/svg11.dtd">
<!-- Uploaded to: SVG Repo, www.svgrepo.com, Transformed by: SVG Repo Mixer Tools -->
<svg width="800px" height="800px" viewBox="0 0 24 24" fill="none" xmlns="http://www.w3.org/2000/svg" class="default_cursor_cs">
<g id="SVGRepo_bgCarrier" stroke-width="0"/>
<g id="SVGRepo_tracerCarrier" stroke-linecap="round" stroke-linejoin="round"/>
<g id="SVGRepo_iconCarrier"> <path d="M9 22H15C20 22 22 20 22 15V9C22 4 20 2 15 2H9C4 2 2 4 2 9V15C2 20 4 22 9 22Z" stroke="#292D32" stroke-width="1.5" stroke-linecap="round" stroke-linejoin="round" class="default_cursor_cs"/> <path opacity="0.4" d="M15.5 18.5C16.6 18.5 17.5 17.6 17.5 16.5V7.5C17.5 6.4 16.6 5.5 15.5 5.5C14.4 5.5 13.5 6.4 13.5 7.5V16.5C13.5 17.6 14.39 18.5 15.5 18.5Z" stroke="#292D32" stroke-width="1.5" stroke-linecap="round" stroke-linejoin="round" class="default_cursor_cs"/> <path opacity="0.4" d="M8.5 18.5C9.6 18.5 10.5 17.6 10.5 16.5V13C10.5 11.9 9.6 11 8.5 11C7.4 11 6.5 11.9 6.5 13V16.5C6.5 17.6 7.39 18.5 8.5 18.5Z" stroke="#292D32" stroke-width="1.5" stroke-linecap="round" stroke-linejoin="round"/> </g>
</svg>